<svg xmlns="http://www.w3.org/2000/svg" width="200" height="200" viewBox="0 0 200 200">
  <defs>
    <linearGradient id="bg" x1="0" y1="0" x2="1" y2="1">
      <stop offset="0%" stop-color="#e3f2fd"/>
      <stop offset="100%" stop-color="#ffffff"/>
    </linearGradient>
    <filter id="shadow" x="-20%" y="-20%" width="140%" height="140%">
      <feDropShadow dx="0" dy="2" stdDeviation="2" flood-color="#000" flood-opacity="0.15"/>
    </filter>
  </defs>
  <rect width="200" height="200" fill="url(#bg)"/>
  <!-- Jacket body -->
  <g filter="url(#shadow)">
    <path d="M60 60 L80 82 L80 150 L60 160 L40 150 L40 80 Z" fill="#4a69bd" stroke="#2c3e50" stroke-width="2"/>
    <path d="M140 60 L120 82 L120 150 L140 160 L160 150 L160 80 Z" fill="#4a69bd" stroke="#2c3e50" stroke-width="2"/>
    <rect x="80" y="82" width="40" height="78" fill="#5f7bc0" stroke="#2c3e50" stroke-width="2"/>
    <!-- Collar -->
    <path d="M80 82 L100 70 L120 82" fill="#5f7bc0" stroke="#2c3e50" stroke-width="2"/>
    <!-- Buttons -->
    <circle cx="92" cy="98" r="3" fill="#ecf0f1"/>
    <circle cx="92" cy="114" r="3" fill="#ecf0f1"/>
    <circle cx="92" cy="130" r="3" fill="#ecf0f1"/>
    <!-- Highlights -->
    <path d="M84 90 L96 90 L96 146 L84 146 Z" fill="#ffffff" opacity="0.08"/>
    <path d="M124 90 L136 90 L136 146 L124 146 Z" fill="#ffffff" opacity="0.06"/>
  </g>
</svg>
