<svg xmlns="http://www.w3.org/2000/svg" width="200" height="200" viewBox="0 0 200 200">
  <defs>
    <linearGradient id="bg2" x1="0" y1="0" x2="1" y2="1">
      <stop offset="0%" stop-color="#fff8e1"/>
      <stop offset="100%" stop-color="#ffffff"/>
    </linearGradient>
    <filter id="shadow2" x="-20%" y="-20%" width="140%" height="140%">
      <feDropShadow dx="0" dy="2" stdDeviation="2" flood-color="#000" flood-opacity="0.15"/>
    </filter>
  </defs>
  <rect width="200" height="200" fill="url(#bg2)"/>
  <g filter="url(#shadow2)">
    <!-- Left boot -->
    <path d="M70 100 L70 140 L65 150 L65 165 L90 165 L90 155 L85 140 L85 100 Z" fill="#8b5a2b" stroke="#5d2f0f" stroke-width="2"/>
    <!-- Right boot -->
    <path d="M120 100 L120 140 L115 150 L115 165 L140 165 L140 155 L135 140 L135 100 Z" fill="#8b5a2b" stroke="#5d2f0f" stroke-width="2"/>
    <!-- Stitching lines -->
    <line x1="72" y1="112" x2="85" y2="112" stroke="#6d3f12" stroke-width="1"/>
    <line x1="72" y1="122" x2="85" y2="122" stroke="#6d3f12" stroke-width="1"/>
    <line x1="122" y1="112" x2="135" y2="112" stroke="#6d3f12" stroke-width="1"/>
    <line x1="122" y1="122" x2="135" y2="122" stroke="#6d3f12" stroke-width="1"/>
    <!-- Highlights -->
    <path d="M74 108 L80 108 L80 150 L74 150 Z" fill="#ffffff" opacity="0.08"/>
    <path d="M126 108 L132 108 L132 150 L126 150 Z" fill="#ffffff" opacity="0.08"/>
  </g>
</svg>
